<?xml version="1.0" encoding="UTF-8" standalone="no"?>
<!-- Created with Inkscape (http://www.inkscape.org/) -->

<svg
   version="1.1"
   id="svg2"
   xml:space="preserve"
   width="1092.64"
   height="255.25333"
   viewBox="0 0 1092.64 255.25333"
   sodipodi:docname="Bekaert_logo_pos_CMYK.eps"
   xmlns:inkscape="http://www.inkscape.org/namespaces/inkscape"
   xmlns:sodipodi="http://sodipodi.sourceforge.net/DTD/sodipodi-0.dtd"
   xmlns="http://www.w3.org/2000/svg"
   xmlns:svg="http://www.w3.org/2000/svg"><defs
     id="defs6"><clipPath
       clipPathUnits="userSpaceOnUse"
       id="clipPath20"><path
         d="M 0,1914 H 1922 V 0 H 0 Z"
         id="path18" /></clipPath></defs><sodipodi:namedview
     id="namedview4"
     pagecolor="#ffffff"
     bordercolor="#666666"
     borderopacity="1.0"
     inkscape:pageshadow="2"
     inkscape:pageopacity="0.0"
     inkscape:pagecheckerboard="0" /><g
     id="g8"
     inkscape:groupmode="layer"
     inkscape:label="ink_ext_XXXXXX"
     transform="matrix(1.3333333,0,0,-1.3333333,0,255.25333)"><g
       id="g10"
       transform="scale(0.1)"><path
         d="m 6615.96,368.879 c -251.22,0 -426.12,182.851 -426.12,443.609 0,260.762 174.9,443.612 426.12,443.612 263.94,0 432.48,-182.85 432.48,-443.612 0,-36.566 -3.18,-65.187 -6.36,-84.269 h -632.82 c 9.54,-106.528 93.81,-181.258 206.7,-181.258 92.22,0 170.13,28.621 205.11,112.891 l 206.7,-33.391 C 6968.94,457.922 6825.84,368.879 6615.96,368.879 m 0,709.141 c -114.48,0 -197.16,-73.14 -206.7,-181.258 h 419.76 c -9.54,108.118 -92.22,181.258 -213.06,181.258 M 3901.84,368.879 c -251.22,0 -426.12,182.851 -426.12,443.609 0,260.762 174.9,443.612 426.12,443.612 263.94,0 432.48,-182.85 432.48,-443.612 0,-36.566 -3.18,-65.187 -6.36,-84.269 h -632.82 c 9.54,-106.528 93.81,-181.258 206.7,-181.258 92.22,0 170.13,28.621 205.11,112.891 l 206.7,-33.391 C 4254.82,457.922 4111.72,368.879 3901.84,368.879 m 0,709.141 c -114.48,0 -197.16,-73.14 -206.7,-181.258 h 419.76 c -9.54,108.118 -92.22,181.258 -213.06,181.258 m 1683.8,-707.551 c -173.31,0 -290.97,103.351 -290.97,255.992 0,152.641 109.71,238.5 356.16,270.301 l 146.28,19.078 c 46.11,6.363 55.65,22.262 55.65,50.879 0,57.241 -54.06,108.121 -155.82,108.121 -82.68,0 -146.28,-34.98 -165.36,-103.352 l -211.47,31.802 c 41.34,146.28 181.26,249.63 376.83,249.63 225.78,0 378.42,-117.66 378.42,-352.979 v -511.98 h -216.24 v 120.84 C 5809.83,413.398 5696.94,370.469 5585.64,370.469 m 273.48,392.73 -208.29,-25.437 c -82.68,-9.543 -136.74,-46.114 -136.74,-100.172 0,-57.238 41.34,-93.809 124.02,-93.809 101.76,0 221.01,60.418 221.01,165.36 v 54.058 M 8029.48,387.961 c -149.46,0 -244.86,93.809 -244.86,243.269 v 895.17 h 216.24 v -289.38 h 193.98 V 1052.58 H 8000.86 V 674.16 c 0,-76.32 25.44,-101.762 101.76,-101.762 h 92.22 V 391.141 c -30.21,-1.59 -95.4,-3.18 -165.36,-3.18 m -647.14,0 H 7166.1 v 849.059 h 209.88 V 1113 h 6.36 c 50.88,93.81 139.92,139.92 251.22,139.92 19.08,0 42.93,-3.18 58.83,-6.36 v -193.98 h -89.04 c -147.87,0 -221.01,-76.318 -221.01,-232.139 v -432.48 m -2100.38,0 H 5037.1 l -225.78,357.75 c -33.39,-11.129 -92.22,-17.492 -143.1,-17.492 V 387.961 H 4451.98 V 1526.4 h 216.24 V 925.383 c 184.44,0 325.95,112.887 341.85,311.637 h 198.75 c -9.54,-182.85 -84.27,-319.59 -206.7,-410.219 l 279.84,-438.84 m -2280.05,0 H 2435.87 V 1526.4 h 546.96 c 270.3,0 375.24,-151.05 375.24,-316.41 0,-124.02 -76.32,-208.29 -178.08,-243.271 v -6.36 c 130.38,-30.211 203.52,-112.89 203.52,-255.988 0,-171.723 -114.48,-316.41 -381.6,-316.41 M 2664.83,855.422 V 591.48 h 324.36 c 92.22,0 159,42.93 159,131.969 0,89.039 -66.78,131.973 -159,131.973 h -324.36 m 0,467.458 v -263.94 h 306.87 c 92.22,0 155.82,42.93 155.82,131.97 0,89.04 -65.19,131.97 -157.41,131.97 h -305.28"
         style="fill:#272324;fill-opacity:1;fill-rule:nonzero;stroke:none"
         id="path12" /><g
         id="g14"><g
           id="g16"
           clip-path="url(#clipPath20)"><path
             d="M 1338.58,0 H 18.3945 C 6.41406,0.21875 0.28125,6.28125 0,18.1992 V 369.75 c 0.289063,12.129 6.64453,18.199 19.0703,18.199 H 1351.49 c 50.88,0 85.86,15.903 85.86,60.422 0,44.52 -34.98,60.418 -85.86,60.418 H 19.0703 C 6.64453,508.789 0.289063,514.859 0,527 v 860.35 c 0.289063,12.13 6.64453,18.2 19.0703,18.2 H 1351.49 c 50.88,0 85.86,15.9 85.86,60.42 0,44.52 -34.98,60.42 -85.86,60.42 H 19.0703 C 6.64453,1526.39 0.289063,1532.46 0,1544.6 v 351.55 c 0.289063,12.14 6.64453,18.21 19.0703,18.21 H 1335.59 c 286.2,0 496.08,-165.37 496.08,-448.39 0,-283.02 -209.88,-448.38 -496.08,-448.38 H 387.949 V 896.75 h 947.641 c 286.2,0 496.08,-165.359 496.08,-448.379 C 1831.67,166.34 1623.25,1.14844 1338.58,0"
             style="fill:#1ab5f1;fill-opacity:1;fill-rule:nonzero;stroke:none"
             id="path22" /></g></g></g></g></svg>
