<?xml version="1.0" encoding="UTF-8" standalone="no"?>
<!-- Created with Inkscape (http://www.inkscape.org/) -->
<svg
   xmlns:svg="http://www.w3.org/2000/svg"
   xmlns="http://www.w3.org/2000/svg"
   version="1.0"
   width="921.25983"
   height="146.33858"
   id="svg2">
  <defs
     id="defs4" />
  <g
     transform="translate(129.70752,-232.98918)"
     id="layer1">
    <g
       transform="matrix(1.6082959,0,0,1.6082959,96.617081,-191.2805)"
       id="g29194">
      <path
         d="M -89.292189,300.98234 L -89.292189,299.15497 C -89.292189,297.99954 -90.21407,297.08586 -91.361303,297.08586 L -104.15703,297.08586 L -116.80526,297.08586 C -118.61625,297.08586 -120.09946,298.54448 -120.09946,300.35956 L -120.07487,313.91738 L -120.09126,329.14279 C -120.09126,333.23185 -117.0388,336.29659 -112.94565,336.29659 L -97.904621,336.29659 L -81.646703,336.29659 C -77.553553,336.29659 -74.492903,333.23185 -74.492903,329.14279 L -74.501093,318.60874 L -74.501093,307.52157 L -74.517483,289.42399 C -74.517483,285.34722 -77.574033,282.28247 -81.667193,282.28247 C -81.667193,282.28247 -91.701373,282.27428 -101.94861,282.27428 L -123.38955,282.27428 L -129.70752,274.87053 L -106.05816,274.87873 L -81.667193,274.89102 C -73.636573,274.89102 -67.117833,281.39747 -67.117833,289.44448 L -67.117833,307.87803 L -67.117833,329.14279 C -67.117833,337.1857 -73.636573,343.72082 -81.667193,343.72082 L -97.707951,343.71263 L -112.92106,343.71263 C -120.93939,343.71263 -127.47042,337.1857 -127.47042,329.13869 L -127.47451,314.53607 L -127.47451,300.54804 C -127.47451,294.54556 -122.63156,289.67802 -116.63318,289.67802 L -103.78828,289.67802 L -86.776472,289.67392 C -84.076381,289.67392 -81.896643,291.86595 -81.896643,294.56605 L -81.904833,299.72039 L -81.904833,304.55106 C -81.904833,306.75538 -83.367556,308.63602 -85.36292,309.23832 C -83.367556,309.84061 -81.884343,311.71306 -81.884343,313.91738 L -81.884343,318.8218 L -81.884343,324.00073 C -81.884343,326.69673 -84.059991,328.90105 -86.768277,328.90105 L -98.121774,328.90105 L -107.79949,328.90105 C -110.50778,328.90105 -112.67933,326.69673 -112.67933,324.00073 L -112.69981,311.0534 L -112.69981,298.47073 L -105.30017,298.47073 L -105.30017,311.30743 L -105.30017,319.4159 C -105.30017,320.56723 -104.38238,321.5055 -103.23105,321.5055 L -97.855452,321.48502 L -91.373592,321.48502 C -90.222265,321.48502 -89.296283,320.55084 -89.296283,319.40771 L -89.296283,316.86741 L -89.296283,315.21621 C -89.296283,314.07308 -90.222265,313.1471 -91.373592,313.1471 L -98.039829,313.1471 L -103.9112,313.15529 L -103.9112,305.3787 L -98.388097,305.3787 L -91.344913,305.37051 C -90.205875,305.37051 -89.292189,304.44043 -89.292189,303.2973 L -89.292189,300.98234 z "
         style="font-size:15.19999981px;letter-spacing:0;word-spacing:0;fill:#36a7e8;fill-opacity:1;fill-rule:nonzero;stroke:none;font-family:fnt2, &quot;HelveticaNeueLTStd&quot;, Arial"
         id="path5804" />
      <path
         d="M -5.7081629,301.85916 L 10.664477,301.85916 C 16.150697,301.85916 20.522477,299.65483 20.522477,294.20139 C 20.522477,288.54718 16.617787,286.81813 10.299817,286.81813 L -5.7081629,286.81813 L -5.7081629,301.85916 z M -5.7081629,331.84288 L 11.410177,331.84288 C 18.207527,331.84288 22.116307,328.77404 22.116307,321.78411 C 22.116307,315.74066 17.080777,313.45439 12.061637,313.45439 L -5.7081629,313.45439 L -5.7081629,331.84288 z M -19.085703,274.94838 L 13.364567,274.94838 C 29.729007,274.94838 33.912307,285.47423 33.912307,292.57068 C 33.912307,302.42458 28.532607,305.21072 25.721887,306.65295 C 33.912307,309.81193 36.059267,316.52324 36.059267,323.32059 C 36.059267,328.77404 33.822167,333.95297 30.298527,337.49709 C 26.479877,341.32803 22.841517,343.72082 9.1771671,343.72082 L -19.085703,343.72082 L -19.085703,274.94838 z "
         style="font-size:15.19999981px;letter-spacing:0;word-spacing:0;fill:#36a7e8;fill-opacity:1;fill-rule:nonzero;stroke:none;font-family:fnt2, &quot;HelveticaNeueLTStd&quot;, Arial"
         id="path5808" />
      <path
         d="M 99.398337,287.10863 L 62.502547,287.10863 L 62.502547,301.57604 L 95.059347,301.57604 L 95.059347,313.72031 L 62.502547,313.72031 L 62.502547,331.53927 L 99.398337,331.53927 L 99.398337,343.72041 L 48.834097,343.72041 L 48.834097,274.94797 L 99.398337,274.94797 L 99.398337,287.10863 z "
         style="font-size:15.19999981px;letter-spacing:0;word-spacing:0;fill:#36a7e8;fill-opacity:1;fill-rule:nonzero;stroke:none;font-family:fnt2, &quot;HelveticaNeueLTStd&quot;, Arial"
         id="path5812" />
      <path
         d="M 293.30959,287.10863 L 256.43428,287.10863 L 256.43428,301.57604 L 288.97061,301.57604 L 288.97061,313.72031 L 256.43428,313.72031 L 256.43428,331.53927 L 293.30959,331.53927 L 293.30959,343.72041 L 242.74124,343.72041 L 242.74124,274.94797 L 293.30959,274.94797 L 293.30959,287.10863 z "
         style="font-size:15.19999981px;letter-spacing:0;word-spacing:0;fill:#36a7e8;fill-opacity:1;fill-rule:nonzero;stroke:none;font-family:fnt2, &quot;HelveticaNeueLTStd&quot;, Arial"
         id="path5816" />
      <path
         d="M 125.97355,343.65117 L 112.00601,343.65117 L 112.00601,274.87053 L 125.97355,274.87053 L 125.97355,302.8466 L 151.45029,274.87053 L 169.48641,274.87053 L 142.23556,303.02688 L 169.94942,343.65117 L 153.10968,343.65117 L 132.4759,313.47488 L 125.97355,320.36237 L 125.97355,343.65117 z "
         style="font-size:15.19999981px;letter-spacing:0;word-spacing:0;fill:#36a7e8;fill-opacity:1;fill-rule:nonzero;stroke:none;font-family:fnt2, &quot;HelveticaNeueLTStd&quot;, Arial"
         id="path5820" />
      <path
         d="M 195.01641,317.58853 L 212.04871,317.58853 L 203.75586,290.39504 L 203.56737,290.39504 L 195.01641,317.58853 z M 185.78121,343.65117 L 171.08844,343.65117 L 194.90168,274.87053 L 210.98342,274.87053 L 234.51807,343.65117 L 219.35822,343.65117 L 215.07248,329.46647 L 190.42749,329.46647 L 185.78121,343.65117 z "
         style="font-size:15.19999981px;letter-spacing:0;word-spacing:0;fill:#36a7e8;fill-opacity:1;fill-rule:nonzero;stroke:none;font-family:fnt2, &quot;HelveticaNeueLTStd&quot;, Arial"
         id="path5824" />
      <path
         d="M 335.97351,305.21072 C 343.22565,305.21072 346.74928,302.62944 346.74928,295.828 C 346.74928,292.18964 345.16773,286.81813 336.98551,286.81813 L 319.59266,286.81813 L 319.59266,305.21072 L 335.97351,305.21072 z M 305.92831,274.94838 L 339.67742,274.94838 C 357.45542,274.94838 360.70045,288.45294 360.70045,294.38986 C 360.70045,301.95339 356.98421,308.47213 350.37946,310.77069 C 355.87388,313.27002 358.84438,315.36781 358.84438,328.21271 C 358.84438,338.25508 359.04106,341.08219 361.81488,343.72082 L 346.38873,343.72082 C 345.45865,340.45941 344.89324,336.91119 344.89324,329.83112 C 344.89324,320.44022 344.34009,316.80185 334.015,316.80185 L 319.59266,316.80185 L 319.59266,343.72082 L 305.92831,343.72082 L 305.92831,274.94838 z "
         style="font-size:15.19999981px;letter-spacing:0;word-spacing:0;fill:#36a7e8;fill-opacity:1;fill-rule:nonzero;stroke:none;font-family:fnt2, &quot;HelveticaNeueLTStd&quot;, Arial"
         id="path5828" />
      <path
         d="M 400.90762,343.72082 L 386.95238,343.72082 L 386.95238,287.10904 L 366.76929,287.10904 L 366.76929,274.94838 L 421.07842,274.94838 L 421.07842,287.10904 L 400.90762,287.10904 L 400.90762,343.72082 z "
         style="font-size:15.19999981px;letter-spacing:0;word-spacing:0;fill:#36a7e8;fill-opacity:1;fill-rule:nonzero;stroke:none;font-family:fnt2, &quot;HelveticaNeueLTStd&quot;, Arial"
         id="path5832" />
    </g>
  </g>
</svg>
